<svg width="22" height="18" viewBox="0 0 22 18" fill="none" xmlns="http://www.w3.org/2000/svg">
<path d="M0.665161 17.3204H20.6652M5.02516 12.7204L2.66516 12.3204L0.665161 8.32038L1.76516 7.77038C2.04432 7.62971 2.35256 7.55643 2.66516 7.55643C2.97776 7.55643 3.286 7.62971 3.56516 7.77038L3.73516 7.87038C4.01432 8.01104 4.32256 8.08432 4.63516 8.08432C4.94776 8.08432 5.256 8.01104 5.53516 7.87038L6.66516 7.32038L3.66516 1.32038L4.56516 0.870376C4.89784 0.706721 5.26945 0.638757 5.63852 0.674074C6.00758 0.709391 6.35956 0.846598 6.65516 1.07038L10.6752 4.07038C10.9718 4.29609 11.3256 4.43442 11.6966 4.46976C12.0677 4.5051 12.4413 4.43604 12.7752 4.27038L16.9652 2.21038C17.5003 1.93952 18.1175 1.87887 18.6952 2.04038L19.6652 2.32038C19.8656 2.37603 20.0511 2.47565 20.2082 2.61198C20.3653 2.74831 20.49 2.91793 20.5733 3.10852C20.6566 3.2991 20.6964 3.50586 20.6898 3.71375C20.6832 3.92165 20.6304 4.12546 20.5352 4.31038L20.1552 5.07038C19.9252 5.53038 19.5552 5.91038 19.0852 6.15038L6.24516 12.5204C5.86761 12.7074 5.44064 12.7704 5.02516 12.7004V12.7204Z" stroke="black" stroke-width="1.33" stroke-linecap="round" stroke-linejoin="round"/>
</svg>
