<svg width="22" height="21" viewBox="0 0 22 21" fill="none" xmlns="http://www.w3.org/2000/svg">
<path d="M0.666687 20.1667H20.6667M2.43669 8.93669L0.666687 7.16669L2.66669 2.66669L3.76669 3.21669C4.31669 3.49669 4.66669 4.05669 4.66669 4.66669C4.66669 5.27669 5.01669 5.83669 5.56669 6.11669L6.66669 6.66669L9.66669 0.666687L10.7167 1.19669C11.0085 1.34203 11.2603 1.55649 11.4503 1.82141C11.6403 2.08634 11.7626 2.39368 11.8067 2.71669L12.5267 8.11669C12.5707 8.43969 12.6931 8.74704 12.883 9.01196C13.073 9.27688 13.3249 9.49135 13.6167 9.63669L18.0167 11.8367C18.4367 12.0567 18.7967 12.3867 19.0267 12.7967L19.6267 13.8267C20.1167 14.7067 19.5667 15.8067 18.5667 15.9267L17.3867 16.0767C16.9167 16.1367 16.4367 16.0567 16.0167 15.8367L2.95669 9.31669C2.76396 9.21894 2.58835 9.09061 2.43669 8.93669Z" stroke="black" stroke-width="1.33333" stroke-linecap="round" stroke-linejoin="round"/>
</svg>
