<svg width="32" height="32" viewBox="0 0 32 32" fill="none" xmlns="http://www.w3.org/2000/svg">
<g clip-path="url(#clip0_5_35)">
<path d="M14.329 22.003C14.898 22.003 15.358 22.375 15.358 22.8335C15.358 23.292 14.898 23.663 14.329 23.663H11.523C10.9535 23.663 10.493 23.292 10.493 22.8335C10.493 22.375 10.9535 22.003 11.523 22.003H14.329ZM16.5 24.907C17.0555 24.907 17.51 25.279 17.51 25.7365C17.51 26.194 17.0575 26.566 16.5 26.566H13.754C13.197 26.566 12.744 26.194 12.744 25.7365C12.744 25.279 13.1955 24.907 13.754 24.907H16.5ZM14.408 9.95498C14.976 9.95498 15.438 9.58298 15.438 9.12498C15.438 8.66698 14.976 8.29648 14.408 8.29648H11.6015C11.033 8.29648 10.572 8.66748 10.572 9.12498C10.572 9.58298 11.033 9.95498 11.6015 9.95498H14.408ZM16.58 7.05248C17.138 7.05248 17.59 6.68148 17.59 6.22448C17.59 5.76598 17.14 5.39398 16.58 5.39398H13.8345C13.2785 5.39398 12.8245 5.76598 12.8245 6.22448C12.8245 6.68148 13.276 7.05248 13.8345 7.05248H16.58Z" fill="#E6E7E8"/>
<path d="M8.80703 15.925L8.81153 15.939L8.80703 15.9535L18.6645 31.9985C19.6335 31.771 20.3735 30.6925 20.3815 29.386L17.3085 18.321L19.085 15.9925L19.087 15.982V15.972L17.251 13.6035L20.52 2.58847C20.528 1.28447 19.7985 0.197474 18.831 -0.0365257L8.80603 15.9225" fill="#27AAE1"/>
<path d="M20.0849 30.7265L11.0049 15.953L11.0094 15.9385L11.0049 15.9245L20.2364 1.229C19.9374 0.577 19.4314 0.098999 18.8294 -0.0460014L8.80444 15.9135L8.80894 15.928L8.80444 15.942L18.6619 31.987C19.2644 31.846 19.7774 31.375 20.0829 30.725" fill="#24A2CE"/>
<path d="M4.0985 15.8205L3.9015 14.054C3.9015 14.054 0.523 14.9265 0.501 15.896L0.5 15.8965L0.501 15.8985V15.9025C0.5125 16.872 3.883 17.773 3.883 17.773L4.097 16.0085H4.119L4.108 15.9165L4.119 15.8215L4.0985 15.8205Z" fill="#AAACAD"/>
<path d="M3.29504 15.88C3.29408 16.4379 3.21532 16.9929 3.06104 17.529C5.22154 18.243 8.92904 18.8655 15.223 18.6375C15.223 18.6375 18.8625 18.099 22.6355 17.501L30.851 16.842C30.99 16.4565 30.855 16.0705 30.855 16.0705C30.8375 16.059 30.804 16.049 30.7735 16.0375L30.855 16.01C30.855 16.01 30.996 15.6225 30.859 15.2365L22.6555 14.4965C18.8895 13.8615 15.254 13.288 15.254 13.288C8.97404 12.9985 5.26004 13.586 3.08954 14.2775C3.22604 14.752 3.30004 15.2875 3.29504 15.88Z" fill="#C0C5C8"/>
<path d="M30.8585 15.43L22.647 16.089C20.1766 16.4791 17.7044 16.8581 15.2305 17.226C9.12705 17.449 5.46055 16.8675 3.27255 16.182C3.24705 16.666 3.18055 17.121 3.06055 17.5295C5.22105 18.2435 8.92855 18.866 15.2225 18.638C15.2225 18.638 18.862 18.0995 22.635 17.5015L30.8505 16.8425C30.9895 16.457 30.8545 16.071 30.8545 16.071C30.837 16.0595 30.8035 16.0495 30.773 16.038L30.8545 16.0105C30.8545 16.0105 30.968 15.6855 30.885 15.332C30.8786 15.3653 30.8697 15.398 30.8585 15.43Z" fill="#AAACAD"/>
<path d="M29.085 11.5925C29.4015 11.5945 29.658 11.9255 29.655 12.331L29.2605 16.032L29.613 19.7295C29.611 20.1365 29.3525 20.466 29.0355 20.464L27.5255 20.456C27.21 20.456 26.9535 20.125 26.9545 19.7175L26.415 16.018L26.9985 12.317C27.0005 11.9115 27.2625 11.5825 27.58 11.5845L29.085 11.5925Z" fill="#27AAE1"/>
<path d="M27.005 12.315L26.4215 16.016L26.961 19.7155C26.96 20.1225 27.2165 20.454 27.532 20.454L28.4915 20.46C28.172 20.459 27.918 20.127 27.9215 19.7205L27.378 16.021L27.9625 12.323C27.9645 11.914 28.226 11.5845 28.542 11.5885L27.5865 11.5825C27.269 11.5805 27.007 11.9095 27.005 12.315Z" fill="#24A2CE"/>
<path d="M5.78596 17.91C5.78596 17.91 3.19096 15.9195 5.77096 13.921C5.77096 13.921 4.53896 15.8555 5.78596 17.91Z" fill="white"/>
</g>
<defs>
<clipPath id="clip0_5_35">
<rect width="32" height="32" fill="white" transform="matrix(0 -1 1 0 0 32)"/>
</clipPath>
</defs>
</svg>
